<?xml version="1.0" encoding="utf-8"?>
<!-- Generator: Adobe Illustrator 23.0.2, SVG Export Plug-In . SVG Version: 6.00 Build 0)  -->
<svg version="1.1" id="Layer_1" xmlns="http://www.w3.org/2000/svg" xmlns:xlink="http://www.w3.org/1999/xlink" x="0px" y="0px"
	 viewBox="0 0 266.22 311.79" style="enable-background:new 0 0 266.22 311.79;" xml:space="preserve">
<style type="text/css">
	.st0{fill:#2E4FA1;}
	.st1{fill:#EF6021;}
</style>
<g>
	<g>
		<g>
			<path class="st0" d="M15.38,152.08c-0.57,0.74-1.25,1.25-2.05,1.53c-0.8,0.28-1.67,0.3-2.62,0.07c-0.94-0.23-1.7-0.65-2.29-1.26
				c-0.59-0.61-0.97-1.38-1.13-2.3c-0.17-0.92-0.12-1.94,0.16-3.06l0.71-2.92l-3.73-0.9l0.58-2.4l12.93,3.13l-1.29,5.32
				C16.37,150.41,15.95,151.34,15.38,152.08z M9.6,149.99c0.31,0.65,0.88,1.07,1.7,1.27c0.82,0.2,1.52,0.08,2.1-0.35
				c0.57-0.43,0.99-1.17,1.24-2.22l0.68-2.81l-5.13-1.24l-0.68,2.81C9.25,148.49,9.28,149.34,9.6,149.99z"/>
			<path class="st0" d="M0.5,165.84l4.17-2.27c0-0.11,0.01-0.29,0.04-0.51l0.33-2.98l-3.85-0.43l0.27-2.45l13.22,1.48l-0.61,5.44
				c-0.13,1.15-0.43,2.12-0.9,2.93c-0.47,0.81-1.09,1.4-1.84,1.77c-0.76,0.37-1.62,0.51-2.59,0.4c-0.99-0.11-1.82-0.45-2.49-1.01
				c-0.66-0.56-1.12-1.32-1.37-2.27l-4.68,2.55L0.5,165.84z M11.06,166.12c0.52-0.5,0.83-1.29,0.95-2.36l0.32-2.87l-5.27-0.59
				l-0.32,2.87c-0.12,1.07,0.02,1.91,0.42,2.51c0.4,0.61,1.02,0.96,1.86,1.05C9.87,166.83,10.55,166.62,11.06,166.12z"/>
			<path class="st0" d="M2.23,184.06l-2.07,0.03L0,174.12l13.3-0.21l0.16,9.71l-2.07,0.03l-0.12-7.24l-3.46,0.06l0.1,6.42
				l-2.03,0.03l-0.1-6.42l-3.67,0.06L2.23,184.06z"/>
			<path class="st0" d="M1.57,192.24c0.44-1.15,1.14-2.1,2.08-2.84s2.07-1.2,3.36-1.38c1.29-0.17,2.5-0.02,3.61,0.46
				s2.03,1.22,2.76,2.21c0.73,1,1.18,2.16,1.35,3.49c0.14,1.08,0.09,2.09-0.17,3.03s-0.7,1.77-1.34,2.48l-1.7-1.38
				c0.9-1.09,1.26-2.33,1.08-3.73c-0.12-0.9-0.43-1.69-0.92-2.35c-0.49-0.66-1.11-1.15-1.87-1.46c-0.76-0.31-1.58-0.4-2.47-0.29
				c-0.89,0.12-1.66,0.42-2.31,0.92c-0.65,0.5-1.13,1.13-1.43,1.9c-0.3,0.77-0.39,1.6-0.27,2.51c0.18,1.39,0.86,2.5,2.03,3.31
				l-1.3,1.78c-0.8-0.52-1.44-1.21-1.94-2.05c-0.5-0.85-0.82-1.81-0.96-2.89C1,194.64,1.13,193.39,1.57,192.24z"/>
			<path class="st0" d="M16.19,203.26l0.56,2.41L3.8,208.68l-0.56-2.41L16.19,203.26z"/>
			<path class="st0" d="M6,215.92c-0.02-1,0.11-1.84,0.39-2.52l2.09,0.21c-0.24,0.65-0.36,1.4-0.37,2.23
				c-0.01,0.84,0.11,1.63,0.36,2.39c0.31,0.94,0.69,1.59,1.14,1.95c0.45,0.36,0.93,0.46,1.42,0.3c0.36-0.12,0.62-0.35,0.77-0.68
				s0.22-0.72,0.23-1.16c0-0.44-0.03-1.03-0.08-1.77c-0.09-1.04-0.12-1.89-0.08-2.56c0.03-0.67,0.22-1.3,0.57-1.89
				s0.94-1.02,1.77-1.29c0.7-0.23,1.39-0.25,2.09-0.06c0.7,0.19,1.34,0.61,1.93,1.27c0.59,0.65,1.07,1.53,1.43,2.64
				c0.25,0.77,0.41,1.56,0.46,2.37c0.05,0.81-0.01,1.54-0.19,2.21l-2.07-0.14c0.14-0.66,0.2-1.32,0.17-1.98
				c-0.03-0.66-0.14-1.27-0.32-1.83c-0.31-0.93-0.69-1.56-1.15-1.91c-0.46-0.35-0.95-0.44-1.47-0.27c-0.36,0.12-0.61,0.34-0.76,0.68
				c-0.14,0.33-0.22,0.72-0.22,1.16c0,0.44,0.03,1.03,0.08,1.77c0.09,1.01,0.12,1.85,0.08,2.53c-0.04,0.68-0.23,1.31-0.57,1.9
				c-0.34,0.59-0.92,1.01-1.74,1.28c-0.7,0.23-1.39,0.25-2.08,0.06c-0.69-0.19-1.33-0.62-1.92-1.28s-1.07-1.54-1.43-2.65
				C6.19,217.91,6.02,216.92,6,215.92z"/>
			<path class="st0" d="M22.62,223.51l0.98,2.27l-12.21,5.27l-0.98-2.27L22.62,223.51z"/>
			<path class="st0" d="M15.92,238.91c-0.02-1.24,0.27-2.38,0.88-3.44c0.61-1.05,1.47-1.9,2.6-2.53c1.13-0.63,2.3-0.94,3.51-0.91
				c1.22,0.03,2.35,0.37,3.39,1.03s1.9,1.58,2.57,2.76c0.67,1.18,1.01,2.39,1.03,3.63c0.02,1.24-0.27,2.38-0.87,3.43
				c-0.6,1.05-1.47,1.9-2.61,2.54s-2.31,0.95-3.52,0.92c-1.21-0.03-2.34-0.38-3.39-1.04c-1.05-0.66-1.9-1.58-2.57-2.76
				C16.28,241.36,15.94,240.15,15.92,238.91z M20.53,243.27c0.7,0.42,1.45,0.63,2.28,0.64c0.82,0,1.62-0.22,2.39-0.65
				c0.77-0.44,1.37-1.01,1.8-1.71c0.42-0.7,0.64-1.46,0.64-2.28c0-0.81-0.22-1.61-0.65-2.38c-0.44-0.77-1-1.37-1.7-1.79
				c-0.7-0.42-1.46-0.63-2.28-0.64c-0.82,0-1.62,0.22-2.39,0.65c-0.77,0.44-1.37,1-1.8,1.71c-0.42,0.7-0.64,1.46-0.64,2.28
				c0,0.81,0.22,1.61,0.65,2.38C19.27,242.25,19.84,242.85,20.53,243.27z"/>
			<path class="st0" d="M41.69,254.8l-10.55,8.1l-1.24-1.61l2.67-11.3l-7.14,5.49l-1.49-1.94l10.55-8.1l1.24,1.61l-2.67,11.3
				l7.14-5.49L41.69,254.8z"/>
			<path class="st0" d="M50.62,266.9l-3.27-2.95l1.4-1.55l8.38,7.56l-1.4,1.55l-3.27-2.95l-7.51,8.33l-1.83-1.65L50.62,266.9z"/>
			<path class="st0" d="M54.42,283.72c-0.56-1.11-0.79-2.27-0.7-3.48s0.5-2.35,1.24-3.41c0.74-1.06,1.66-1.84,2.77-2.34
				s2.28-0.68,3.51-0.54c1.23,0.14,2.4,0.6,3.51,1.37c1.11,0.78,1.94,1.72,2.5,2.82s0.79,2.26,0.71,3.47s-0.5,2.35-1.25,3.42
				c-0.75,1.07-1.67,1.85-2.78,2.35c-1.1,0.5-2.27,0.67-3.5,0.53c-1.23-0.14-2.4-0.6-3.51-1.37
				C55.81,285.77,54.98,284.82,54.42,283.72z M60.47,285.65c0.81,0.08,1.59-0.06,2.33-0.41s1.37-0.9,1.87-1.62
				c0.51-0.73,0.8-1.5,0.88-2.32c0.08-0.82-0.06-1.6-0.41-2.33c-0.35-0.73-0.89-1.35-1.62-1.86s-1.5-0.8-2.31-0.88
				c-0.81-0.08-1.59,0.06-2.33,0.41c-0.74,0.35-1.37,0.9-1.87,1.62c-0.51,0.73-0.8,1.5-0.88,2.32c-0.08,0.82,0.06,1.59,0.41,2.33
				c0.35,0.73,0.89,1.35,1.62,1.86C58.89,285.27,59.66,285.57,60.47,285.65z"/>
			<path class="st0" d="M70.58,293.96c-0.71-1.01-1.11-2.13-1.19-3.34c-0.09-1.21,0.16-2.4,0.74-3.55c0.58-1.16,1.38-2.06,2.4-2.72
				c1.02-0.66,2.15-1,3.39-1.04s2.46,0.25,3.67,0.85c1.21,0.61,2.17,1.42,2.88,2.43s1.11,2.13,1.2,3.33
				c0.09,1.21-0.16,2.39-0.74,3.56c-0.58,1.17-1.39,2.08-2.41,2.73s-2.15,1-3.39,1.03c-1.24,0.04-2.46-0.25-3.67-0.85
				C72.25,295.78,71.29,294.97,70.58,293.96z M76.84,294.99c0.81-0.04,1.56-0.29,2.24-0.75c0.68-0.46,1.22-1.08,1.62-1.88
				c0.4-0.79,0.58-1.6,0.53-2.42c-0.04-0.82-0.29-1.57-0.75-2.24c-0.46-0.67-1.08-1.21-1.87-1.61c-0.79-0.4-1.6-0.58-2.41-0.54
				c-0.81,0.04-1.56,0.29-2.24,0.75s-1.22,1.08-1.62,1.88c-0.4,0.79-0.58,1.6-0.53,2.42c0.04,0.82,0.29,1.57,0.75,2.24
				c0.46,0.67,1.08,1.21,1.87,1.61C75.23,294.85,76.03,295.03,76.84,294.99z"/>
			<path class="st0" d="M89.73,288.94l2.33,0.82l-3.71,10.58l6.56,2.3l-0.69,1.97l-8.89-3.12L89.73,288.94z"/>
			<path class="st0" d="M100.1,305.91c-0.87-0.5-1.52-1.05-1.95-1.64l1.27-1.68c0.43,0.54,1.01,1.04,1.72,1.48
				c0.71,0.44,1.45,0.75,2.23,0.93c0.96,0.22,1.72,0.23,2.26,0.04c0.55-0.2,0.88-0.55,1-1.06c0.09-0.37,0.02-0.71-0.19-1.01
				c-0.21-0.3-0.5-0.57-0.88-0.8c-0.38-0.23-0.9-0.51-1.56-0.85c-0.93-0.46-1.68-0.88-2.23-1.26c-0.56-0.38-1-0.86-1.32-1.46
				c-0.32-0.6-0.39-1.33-0.19-2.18c0.17-0.72,0.51-1.32,1.03-1.82c0.52-0.5,1.22-0.83,2.08-0.99c0.86-0.17,1.86-0.12,3,0.15
				c0.79,0.18,1.54,0.46,2.26,0.83s1.31,0.81,1.78,1.31l-1.19,1.69c-0.49-0.46-1.02-0.85-1.6-1.17s-1.16-0.54-1.74-0.67
				c-0.95-0.22-1.69-0.22-2.23-0.01c-0.54,0.21-0.87,0.59-0.99,1.12c-0.09,0.37-0.02,0.7,0.19,1c0.21,0.3,0.5,0.56,0.88,0.79
				c0.38,0.23,0.9,0.51,1.56,0.85c0.91,0.45,1.65,0.86,2.21,1.24c0.56,0.38,1,0.87,1.33,1.47c0.32,0.6,0.39,1.31,0.2,2.15
				c-0.17,0.72-0.51,1.32-1.03,1.81c-0.52,0.49-1.22,0.82-2.09,0.98s-1.87,0.11-3.01-0.15C101.9,306.78,100.96,306.41,100.1,305.91z
				"/>
			<path class="st0" d="M115.73,306.53c0.25,0.33,0.34,0.73,0.27,1.19c-0.03,0.2-0.09,0.41-0.17,0.62
				c-0.09,0.21-0.25,0.52-0.49,0.94l-1.33,2.52l-1.52-0.22l1.16-2.77c-0.26-0.15-0.45-0.36-0.57-0.63s-0.16-0.56-0.11-0.89
				c0.07-0.46,0.26-0.82,0.59-1.07c0.33-0.25,0.71-0.34,1.15-0.28C115.14,306,115.48,306.2,115.73,306.53z"/>
			<path class="st0" d="M131.69,299.02l-4.41-0.07l0.03-2.09l11.28,0.18l-0.03,2.09l-4.41-0.07l-0.18,11.21l-2.47-0.04
				L131.69,299.02z"/>
			<path class="st0" d="M151.94,308.97l-3.14-3.56c-0.11,0.03-0.28,0.05-0.51,0.08l-2.98,0.34l0.44,3.85l-2.45,0.28l-1.52-13.21
				l5.44-0.63c1.14-0.13,2.16-0.06,3.06,0.22s1.61,0.75,2.14,1.4c0.53,0.65,0.86,1.46,0.97,2.43c0.11,0.99-0.03,1.88-0.43,2.65
				c-0.4,0.77-1.04,1.39-1.9,1.84l3.54,3.99L151.94,308.97z M149.85,298.61c-0.61-0.39-1.44-0.52-2.51-0.4l-2.87,0.33l0.61,5.27
				l2.87-0.33c1.07-0.12,1.86-0.45,2.36-0.97c0.5-0.52,0.7-1.21,0.61-2.05C150.81,299.62,150.45,299,149.85,298.61z"/>
			<path class="st0" d="M161.22,305.95c-1.25-0.75-2.11-2.06-2.58-3.93l-1.84-7.28l2.4-0.6l1.81,7.18c0.64,2.53,2.05,3.52,4.24,2.97
				c2.17-0.55,2.94-2.09,2.3-4.62l-1.81-7.19l2.36-0.59l1.84,7.28c0.47,1.87,0.34,3.42-0.4,4.68c-0.74,1.25-1.99,2.1-3.78,2.55
				C163.98,306.85,162.47,306.7,161.22,305.95z"/>
			<path class="st0" d="M178.58,302.03c-1,0.08-1.84-0.01-2.54-0.25l0.1-2.1c0.66,0.2,1.41,0.29,2.25,0.25
				c0.84-0.03,1.63-0.2,2.37-0.49c0.92-0.36,1.55-0.78,1.89-1.25s0.41-0.95,0.22-1.43c-0.14-0.35-0.38-0.6-0.72-0.73
				s-0.74-0.18-1.17-0.16c-0.44,0.02-1.03,0.08-1.77,0.18c-1.03,0.14-1.88,0.22-2.55,0.22c-0.67,0-1.31-0.15-1.92-0.46
				c-0.61-0.31-1.07-0.88-1.39-1.69c-0.27-0.68-0.33-1.38-0.17-2.08c0.15-0.71,0.54-1.37,1.16-1.99c0.62-0.62,1.47-1.15,2.56-1.57
				c0.75-0.29,1.53-0.49,2.34-0.59c0.8-0.1,1.54-0.07,2.21,0.07l-0.03,2.07c-0.67-0.11-1.33-0.13-1.98-0.06
				c-0.65,0.07-1.26,0.21-1.81,0.42c-0.91,0.36-1.52,0.77-1.85,1.25s-0.38,0.97-0.19,1.48c0.14,0.35,0.38,0.59,0.72,0.72
				c0.34,0.13,0.73,0.18,1.17,0.15c0.44-0.02,1.03-0.08,1.77-0.18c1-0.15,1.84-0.22,2.52-0.22s1.32,0.15,1.92,0.46
				s1.06,0.86,1.38,1.67c0.27,0.68,0.32,1.38,0.17,2.08c-0.16,0.7-0.54,1.36-1.17,1.99c-0.63,0.63-1.48,1.15-2.57,1.58
				C180.55,301.73,179.58,301.95,178.58,302.03z"/>
			<path class="st0" d="M188.37,285.8l-3.91,2.04l-0.97-1.85l10-5.23l0.97,1.85l-3.91,2.04l5.2,9.93l-2.19,1.15L188.37,285.8z"/>
			<path class="st0" d="M210.92,282.66l1.16,1.71l-8.26,5.6l-7.46-11.01l8.04-5.45l1.16,1.71l-5.99,4.06l1.94,2.86l5.32-3.6
				l1.14,1.68l-5.32,3.6l2.06,3.04L210.92,282.66z"/>
			<path class="st0" d="M207.94,270.84l4.35-3.86c1.06-0.94,2.19-1.57,3.38-1.89c1.19-0.32,2.35-0.3,3.47,0.05s2.12,1.02,3,2
				c0.87,0.99,1.42,2.06,1.63,3.21c0.21,1.16,0.09,2.31-0.37,3.45c-0.46,1.14-1.22,2.19-2.28,3.13l-4.35,3.86L207.94,270.84z
				 M219.65,275.44c0.73-0.65,1.25-1.36,1.55-2.13c0.31-0.77,0.38-1.55,0.22-2.33c-0.16-0.78-0.54-1.51-1.15-2.2
				s-1.29-1.15-2.04-1.4c-0.76-0.25-1.54-0.27-2.34-0.06c-0.8,0.21-1.57,0.64-2.3,1.29l-2.42,2.14l6.05,6.82L219.65,275.44z"/>
			<path class="st0" d="M236.13,260.98c-0.82,0.58-1.58,0.94-2.31,1.08l-0.99-1.85c0.67-0.17,1.36-0.48,2.06-0.94
				c0.7-0.46,1.3-1,1.79-1.63c0.61-0.78,0.93-1.46,0.98-2.04c0.05-0.58-0.13-1.03-0.54-1.35c-0.3-0.23-0.63-0.32-0.99-0.25
				s-0.73,0.22-1.09,0.46c-0.37,0.25-0.84,0.6-1.42,1.06c-0.81,0.65-1.5,1.15-2.08,1.5c-0.58,0.35-1.2,0.54-1.88,0.58
				c-0.68,0.04-1.37-0.21-2.06-0.74c-0.58-0.45-0.99-1.02-1.22-1.7c-0.23-0.68-0.24-1.45-0.03-2.31c0.21-0.85,0.68-1.74,1.39-2.66
				c0.5-0.64,1.07-1.21,1.71-1.71c0.64-0.5,1.29-0.85,1.94-1.07l1.04,1.79c-0.63,0.25-1.21,0.57-1.73,0.96s-0.98,0.82-1.34,1.29
				c-0.6,0.77-0.91,1.44-0.94,2.02c-0.03,0.58,0.17,1.03,0.6,1.37c0.3,0.23,0.63,0.32,0.99,0.25c0.36-0.07,0.72-0.22,1.08-0.47
				c0.37-0.25,0.84-0.6,1.42-1.06c0.79-0.64,1.47-1.14,2.05-1.48c0.58-0.35,1.21-0.54,1.89-0.59s1.35,0.2,2.03,0.73
				c0.58,0.45,0.98,1.02,1.21,1.7c0.23,0.68,0.23,1.45,0.01,2.31c-0.22,0.86-0.68,1.75-1.4,2.67
				C237.67,259.71,236.95,260.4,236.13,260.98z"/>
			<path class="st0" d="M233.16,242.94l1.33-2.08l11.19,7.19l-1.34,2.08L233.16,242.94z"/>
			<path class="st0" d="M242.6,225.98l11.87,6.01l-0.92,1.81l-11.35,2.47l8.03,4.07l-1.11,2.19l-11.86-6.01l0.92-1.81l11.35-2.47
				l-8.03-4.07L242.6,225.98z"/>
			<path class="st0" d="M257.23,223.12c-0.91,0.83-1.96,1.37-3.14,1.6s-2.39,0.15-3.62-0.28c-1.23-0.43-2.24-1.1-3.01-2.03
				c-0.78-0.93-1.27-2-1.47-3.21c-0.2-1.22-0.08-2.46,0.36-3.73c0.36-1.03,0.86-1.91,1.52-2.63c0.65-0.72,1.42-1.26,2.31-1.61
				l0.89,2c-1.3,0.57-2.18,1.52-2.64,2.85c-0.3,0.86-0.38,1.7-0.24,2.51c0.14,0.81,0.48,1.53,1.02,2.14
				c0.54,0.62,1.23,1.07,2.08,1.37s1.68,0.37,2.48,0.22c0.8-0.15,1.51-0.5,2.13-1.05c0.61-0.55,1.07-1.26,1.37-2.12
				c0.46-1.33,0.35-2.62-0.32-3.87l1.96-1.01c0.48,0.82,0.75,1.72,0.81,2.71c0.06,0.98-0.09,1.99-0.44,3.01
				C258.82,221.24,258.14,222.29,257.23,223.12z"/>
			<path class="st0" d="M262.24,199.43l2.03,0.43l-2.08,9.75l-13.01-2.78l2.03-9.49l2.03,0.43l-1.51,7.08l3.38,0.72l1.34-6.28
				l1.99,0.42l-1.34,6.28l3.59,0.76L262.24,199.43z"/>
			<path class="st0" d="M252.68,182.13l13.28,0.73l-0.14,2.47l-11.21-0.62l-0.16,2.81l-2.07-0.11L252.68,182.13z"/>
			<path class="st0" d="M254.07,169.09c1.1-1.05,2.72-1.61,4.84-1.69c1.49-0.06,2.78,0.17,3.86,0.68c1.08,0.5,1.91,1.24,2.5,2.2
				c0.59,0.96,0.9,2.09,0.95,3.38c0.02,0.68-0.02,1.33-0.15,1.94c-0.12,0.61-0.32,1.14-0.58,1.59l-1.89-0.84
				c0.41-0.67,0.59-1.52,0.55-2.55c-0.05-1.28-0.48-2.26-1.29-2.96s-1.96-1.01-3.44-0.96l-0.02,0c0.47,0.38,0.83,0.86,1.09,1.46
				c0.26,0.6,0.4,1.28,0.43,2.04c0.03,0.87-0.11,1.67-0.42,2.37s-0.77,1.27-1.37,1.69s-1.31,0.64-2.12,0.67
				c-0.86,0.03-1.63-0.15-2.29-0.56c-0.67-0.41-1.19-0.97-1.57-1.69c-0.38-0.72-0.59-1.54-0.62-2.45
				C252.45,171.58,252.97,170.14,254.07,169.09z M258.25,171.05c-0.45-0.48-1-0.71-1.66-0.69c-0.65,0.02-1.17,0.29-1.58,0.79
				c-0.41,0.5-0.59,1.19-0.56,2.04c0.03,0.77,0.26,1.39,0.69,1.86c0.43,0.47,0.99,0.69,1.67,0.66c0.7-0.03,1.24-0.29,1.63-0.78
				c0.39-0.5,0.57-1.15,0.54-1.96C258.94,172.17,258.7,171.53,258.25,171.05z"/>
			<path class="st0" d="M250.75,154.64l1.64-0.24l12.27,3.42l0.38,2.61l-11.82-3.31l0.76,5.17l2.24-0.33l0.33,2.27l-4.3,0.63
				L250.75,154.64z"/>
			<path class="st0" d="M257.42,138.79l0.58,2.28l2.93-0.75l0.59,2.32l-2.93,0.75l1.81,7.07l-1.66,0.42l-9.93-4.22l-0.66-2.56
				l9.47,3.95l-1.08-4.21l-2.6,0.67l-0.58-2.25l2.59-0.67l-0.58-2.28L257.42,138.79z"/>
		</g>
	</g>
	<g>
		<g>
			<g>
				<path class="st1" d="M141.85,268.77c-0.09-0.17-0.31-0.57-0.85-0.73c-1.02-0.29-2.05-0.57-3.07-0.85
					c-2.02-0.55-4.12-1.13-6.14-1.77c-16.38-5.18-30.3-14.66-41.39-28.19c-6.62-8.08-11.66-17.16-14.95-26.99
					c-4.83-14.39-5.92-27.76-3.35-40.85c2.46-12.52,8.49-23.67,13.47-31.98c4.11-6.86,8.6-13.66,12.94-20.23
					c3.7-5.6,7.52-11.39,11.11-17.22c6.48-10.53,13.76-23.18,18.52-37.14c4.52-13.27,5.76-25.74,3.77-38.13
					c-1.06-6.57-3.46-12.61-6.01-19.01L123.64,0l-0.85,4.08c-0.09,0.43-0.17,0.8-0.25,1.15c-0.15,0.69-0.27,1.26-0.37,1.83
					c-1.42,8.29-3.52,16.23-6.23,23.6c-5.91,16.07-14.67,31.79-27.6,49.45c-4.93,6.74-10.08,13.5-15.05,20.04
					c-3.58,4.71-7.28,9.57-10.88,14.39c-6.66,8.93-14.25,19.71-20.02,31.94c-6.36,13.47-9.18,26.34-8.6,39.33
					c0.56,12.76,3.72,25.06,9.37,36.55c5.79,11.75,14.01,21.95,24.44,30.31c10.58,8.48,22.47,14.3,35.33,17.29
					c7.48,1.74,14.53,2.61,21.34,2.61c2.67,0,5.31-0.13,7.92-0.4l1.13-0.11c2.58-0.25,5.25-0.51,7.91-1.25l1.6-0.45l-0.86-1.41
					C141.9,268.87,141.87,268.81,141.85,268.77z M133.07,269.57l-1.14,0.11c-8.99,0.91-18.29,0.21-28.44-2.16
					c-12.5-2.91-24.05-8.56-34.33-16.81c-10.14-8.13-18.13-18.04-23.75-29.46c-5.5-11.18-8.57-23.14-9.12-35.55
					c-0.56-12.58,2.18-25.06,8.37-38.15c5.68-12.03,13.18-22.68,19.77-31.51c3.59-4.81,7.29-9.67,10.87-14.37
					c4.98-6.55,10.14-13.32,15.08-20.08c13.06-17.85,21.94-33.76,27.93-50.06c2.62-7.14,4.68-14.8,6.12-22.78
					c2.17,5.49,4.12,10.77,5.01,16.34c1.92,11.97,0.73,24.05-3.66,36.92c-4.68,13.72-11.86,26.22-18.28,36.64
					c-3.56,5.79-7.38,11.56-11.07,17.15c-4.36,6.59-8.86,13.41-13,20.32c-5.08,8.49-11.24,19.88-13.78,32.78
					c-2.66,13.54-1.54,27.32,3.43,42.14c3.39,10.11,8.57,19.46,15.39,27.78c11.4,13.91,25.72,23.67,42.57,28.99
					c1.64,0.52,3.31,0.99,4.96,1.44C135.01,269.38,134.03,269.47,133.07,269.57z"/>
				<path class="st1" d="M235.35,194.35c-1.11-0.69-2.22-1.4-3.33-2.1c-1.76-1.11-3.58-2.27-5.37-3.35
					c-0.69-0.44-1.4-0.86-2.11-1.29c-1.63-0.96-2.13-1.84-1.94-3.37c0.22-1.78,0.18-3.58,0.11-5.27c-0.08-1.63,0.47-2.59,2-3.43
					c0.53-0.3,1.07-0.6,1.58-0.9c1.67-0.95,3.33-1.94,4.98-2.93c1.59-0.96,3.19-1.9,4.79-2.83c1.94-1.12,2.58-2.73,1.94-4.91
					c-1.13-3.79-2.17-7.55-3.09-11.16c-0.56-2.18-1.94-3.19-4.2-3.16c-2.12,0.05-4.27,0.05-6.36,0.05
					c-1.47,0.01-2.94,0.01-4.39,0.02c-0.96,0-1.92,0.02-2.87,0.05c-1.3,0.05-2.11-0.38-2.75-1.4l-0.65-1.03
					c-0.86-1.38-1.75-2.81-2.67-4.19c-0.68-1.03-0.72-1.88-0.11-3.02c0.74-1.42,1.51-2.94,2.36-4.68l0.53-1.07
					c0.97-1.98,1.98-4.01,3.03-5.97c1.26-2.32,0.9-4.27-1.09-5.96c-1.82-1.53-3.64-3.09-5.44-4.64c-1.13-0.97-2.25-1.94-3.39-2.9
					c-1.5-1.28-3.25-1.36-4.93-0.22l-0.94,0.63c-5.14-7.29-10.66-14.46-15.99-21.41l-2.75-3.58c-8.56-11.18-18.27-23.84-26.58-37.05
					c-1.52-2.42-2.98-4.83-4.52-7.39c-0.74-1.22-1.48-2.45-2.25-3.69l-0.9-1.48l-1.12,1.32c-0.87,1.02-1.03,1.97-1.14,2.66
					l-0.05,0.26c-0.9,4.83-2.16,9.99-3.98,16.23c-5.67,19.55-15.02,38.91-28.6,59.19l-0.71,1.06
					c-6.96,10.41-14.17,21.17-19.69,32.72c-2.14,4.47-3.75,8.63-4.92,12.69l-1.48,0.38c-1.92,0.49-3.85,0.99-5.79,1.45
					c-2.31,0.54-3.42,1.93-3.41,4.25c0.04,4.36-0.01,8.85-0.14,13.35c-0.07,2.32,0.99,3.69,3.33,4.31c2.13,0.56,4.34,1.17,6.57,1.82
					c2.23,0.63,4.47,1.28,6.69,1.94c1.09,0.32,2.07,1.55,2.53,3.13c0.43,1.53,0.25,3.06-0.48,3.88c-1.75,1.97-3.52,3.93-5.42,5.99
					c-1.4,1.51-2.79,3-4.2,4.5c-1.57,1.66-1.7,3.44-0.41,5.43c2.73,4.24,4.91,7.78,6.85,11.14c1.55,2.67,3.66,2.36,5.11,1.88
					c1.24-0.4,2.54-0.77,3.8-1.13l0.66-0.18c2.19-0.63,4.15-1.21,6.08-1.99c1.63-0.66,2.92-0.84,4.06-0.57
					c0.49,0.11,0.97,0.31,1.42,0.61l0.11,0.09c0.22,0.18,0.44,0.35,0.67,0.51c0.32,0.28,0.63,0.61,0.94,0.99
					c0.63,0.76,0.94,1.29,1.09,1.82c0.13,0.44,0.14,0.89,0.03,1.43c-0.55,2.67-1.04,5.39-1.51,8.04l-0.34,1.87
					c-0.22,1.24-0.44,2.47-0.68,3.71c-0.42,2.21,0.36,3.75,2.37,4.7c3.93,1.86,7.81,3.79,11.53,5.74c2.09,1.09,3.84,0.75,5.36-1.05
					c1.07-1.28,2.19-2.59,3.52-4.12c0.88-1.01,1.78-2.06,2.76-3.17c0.91-1.04,1.87-2.14,2.87-3.3c0.57-0.63,0.79-0.86,0.96-0.89
					c0.37-0.07,1.29,0.1,2.69,0.36c0.22,0.04,0.45,0.09,0.67,0.14c0.51,0.11,1.05,0.22,1.61,0.27c1.31,0.12,2.04,0.72,2.6,2.17
					c0.71,1.86,1.5,3.72,2.25,5.52l0.5,1.22c0.78,1.84,1.58,3.75,2.32,5.64c0.82,2.07,2.13,3.06,4.09,3.06
					c0.3,0,0.61-0.03,0.93-0.07c4.31-0.59,8.28-1.02,12.15-1.33c2.33-0.19,3.6-1.45,3.86-3.85c0.26-2.29,0.58-4.57,0.89-6.71
					c0.11-0.72,0.22-1.46,0.32-2.17c0.16-1.11,0.28-2.03,0.37-2.8c0.21-1.69,0.34-2.71,0.61-3.12c0.22-0.32,0.82-0.57,2.14-1.09
					c0.87-0.34,2.07-0.82,3.59-1.52c1.15-0.52,2-0.43,3.04,0.32c1.84,1.33,3.68,2.62,5.42,3.83l1.6,1.11
					c1.44,0.99,2.87,1.98,4.29,2.99c0.68,0.49,2.76,1.96,4.91,0.25c1.77-1.4,3.52-2.83,5.28-4.25c1.77-1.43,3.53-2.86,5.31-4.27
					c1.98-1.57,1.09-3.39,0.8-3.99c-1.46-2.97-2.61-5.43-3.64-7.72l-0.25-0.57c-0.61-1.38-1.12-2.44-1.53-3.3
					c-0.74-1.53-1.15-2.37-1.09-2.89c0.05-0.53,0.67-1.38,1.69-2.79c0.53-0.74,1.18-1.64,1.94-2.75c0.06-0.08,0.19-0.24,0.26-0.42
					c0.42-1.01,1.07-1.57,3.09-1.45c1.52,0.07,3.04,0.13,4.56,0.18l1.26,0.03c2.41,0.07,4.91,0.14,7.34,0.28
					c2.5,0.15,4.04-0.97,4.76-3.4c1.01-3.41,2.1-7.03,3.38-10.59C238.09,197.4,237.45,195.66,235.35,194.35z M234.91,198.85
					c-1.3,3.62-2.4,7.28-3.42,10.72c-0.39,1.31-0.9,1.68-2.22,1.61c-2.47-0.14-4.98-0.21-7.41-0.28l-1.25-0.03
					c-1.5-0.05-3-0.11-4.51-0.18c-1.75-0.1-4.21,0.09-5.47,2.86l-0.06,0.08c-0.76,1.11-1.39,2-1.92,2.71
					c-2.71,3.76-2.75,4.22-0.82,8.24c0.41,0.84,0.92,1.89,1.5,3.22l0.26,0.57c1.04,2.33,2.21,4.81,3.67,7.8
					c0.3,0.62,0.24,0.66-0.11,0.94c-1.78,1.42-3.55,2.85-5.32,4.29c-1.75,1.42-3.5,2.84-5.27,4.24c-0.39,0.3-0.77,0.47-1.9-0.34
					c-1.44-1.01-2.88-2.01-4.31-3.01l-1.6-1.11c-1.73-1.2-3.56-2.48-5.38-3.79c-1.76-1.28-3.58-1.47-5.55-0.57
					c-1.46,0.67-2.58,1.11-3.46,1.47c-3.6,1.43-3.78,1.95-4.31,6.23c-0.09,0.76-0.2,1.67-0.36,2.76c-0.1,0.71-0.21,1.44-0.32,2.16
					c-0.32,2.16-0.64,4.47-0.9,6.8c-0.13,1.23-0.43,1.53-1.57,1.63c-3.91,0.32-7.93,0.75-12.29,1.34c-1.32,0.18-1.83-0.13-2.34-1.42
					c-0.74-1.92-1.55-3.85-2.34-5.7l-0.51-1.21c-0.74-1.78-1.51-3.63-2.22-5.46c-0.9-2.32-2.43-3.55-4.71-3.76
					c-0.41-0.03-0.84-0.13-1.3-0.22c-0.24-0.05-0.49-0.11-0.74-0.15c-1.33-0.24-2.25-0.4-2.96-0.4c-1.23,0-1.87,0.47-3.02,1.74
					c-1.01,1.18-1.98,2.27-2.88,3.31c-0.97,1.11-1.89,2.16-2.76,3.17c-1.35,1.55-2.48,2.87-3.56,4.16
					c-0.76,0.92-1.21,1.01-2.27,0.45c-3.75-1.96-7.66-3.91-11.62-5.78c-0.96-0.45-1.19-0.9-0.98-1.97c0.24-1.24,0.46-2.48,0.68-3.73
					l0.34-1.88c0.47-2.62,0.96-5.33,1.5-7.98c0.19-0.94,0.16-1.8-0.07-2.62c-0.32-1.09-0.97-1.99-1.56-2.71
					c-0.41-0.51-0.84-0.96-1.28-1.34l-0.1-0.07c-0.21-0.15-0.41-0.31-0.62-0.47l-0.24-0.18c-0.72-0.47-1.5-0.81-2.29-0.98
					c-1.63-0.39-3.44-0.16-5.56,0.69c-1.82,0.74-3.71,1.3-5.82,1.9l-0.65,0.18c-1.28,0.36-2.61,0.74-3.9,1.16
					c-1.18,0.38-1.59,0.24-2.17-0.76c-1.96-3.39-4.16-6.96-6.91-11.24c-0.72-1.12-0.6-1.59,0.13-2.36c1.41-1.5,2.82-3,4.22-4.52
					c1.92-2.07,3.7-4.04,5.46-6.02c1.32-1.5,1.7-3.83,1.01-6.24c-0.69-2.42-2.31-4.27-4.22-4.83c-2.23-0.66-4.47-1.31-6.7-1.95
					c-2.24-0.65-4.47-1.26-6.63-1.82c-1.2-0.32-1.49-0.68-1.46-1.82c0.14-4.53,0.18-9.06,0.14-13.44c-0.01-1.16,0.3-1.53,1.48-1.81
					c1.95-0.46,3.89-0.96,5.84-1.46l2.88-0.74l0.19-0.7c1.14-4.14,2.77-8.38,4.97-12.98c5.45-11.39,12.6-22.08,19.52-32.4l0.71-1.07
					c13.72-20.5,23.18-40.08,28.92-59.88c1.8-6.2,3.08-11.35,3.98-16.19c0.3,0.49,0.6,0.99,0.9,1.48c1.55,2.57,3.02,4.99,4.54,7.43
					c8.37,13.31,18.11,26.03,26.71,37.25l2.75,3.59c5.57,7.24,11.32,14.73,16.64,22.33l0.71,1.01l2.97-2.01
					c0.76-0.51,1.25-0.49,1.9,0.06c1.13,0.96,2.25,1.92,3.38,2.89c1.81,1.57,3.63,3.13,5.46,4.66c1.07,0.91,1.19,1.57,0.49,2.86
					c-1.07,2-2.09,4.06-3.07,6.05l-0.53,1.07c-0.84,1.73-1.59,3.23-2.32,4.62c-1.03,1.96-0.95,3.79,0.25,5.58
					c0.9,1.35,1.78,2.76,2.63,4.12l0.64,1.03c1.12,1.78,2.74,2.62,4.93,2.58c0.94-0.03,1.88-0.04,2.82-0.04
					c1.46-0.02,2.92-0.02,4.38-0.02c2.1-0.01,4.27-0.01,6.42-0.06c1.11-0.03,1.44,0.22,1.71,1.28c0.93,3.64,1.98,7.43,3.11,11.26
					c0.31,1.07,0.15,1.48-0.78,2.02c-1.62,0.93-3.22,1.89-4.83,2.85c-1.64,0.98-3.28,1.96-4.95,2.92c-0.51,0.3-1.03,0.59-1.54,0.88
					c-2.34,1.28-3.41,3.17-3.29,5.74c0.07,1.57,0.11,3.24-0.09,4.83c-0.4,3.31,1.61,4.91,3.15,5.83c0.69,0.41,1.38,0.82,2.07,1.26
					c1.79,1.09,3.6,2.23,5.35,3.34c1.11,0.71,2.23,1.42,3.35,2.11h0.01C235.13,197.16,235.32,197.69,234.91,198.85z"/>
				<path class="st1" d="M203.38,178.98c0-26-21.16-47.16-47.16-47.16c-26,0-47.15,21.16-47.15,47.16s21.15,47.16,47.15,47.16
					C182.22,226.14,203.38,204.98,203.38,178.98z M156.22,223.64c-24.62,0-44.65-20.03-44.65-44.66c0-24.62,20.03-44.66,44.65-44.66
					c24.63,0,44.66,20.04,44.66,44.66C200.87,203.61,180.84,223.64,156.22,223.64z"/>
				<path class="st1" d="M124.89,132.08c3.03-2.11,6.29-3.88,9.67-5.41c6.78-3.01,14.13-4.75,21.67-5.28
					c-7.54-0.52-15.27,0.7-22.42,3.48c-3.59,1.36-7.01,3.16-10.24,5.24c-3.22,2.11-6.21,4.56-8.95,7.26
					c-2.7,2.74-5.16,5.73-7.26,8.95c-2.08,3.23-3.88,6.65-5.24,10.24c-2.77,7.15-4,14.87-3.48,22.41
					c0.52-7.54,2.26-14.89,5.28-21.67c3.02-6.77,7.24-12.97,12.48-18.17C118.98,136.52,121.84,134.16,124.89,132.08z"/>
				<path class="st1" d="M208.54,200.65c-3.02,6.77-7.24,12.97-12.48,18.17c-2.6,2.62-5.45,4.98-8.5,7.06
					c-3.03,2.11-6.29,3.88-9.67,5.41c-6.78,3.01-14.13,4.75-21.67,5.28c7.54,0.52,15.27-0.7,22.42-3.48
					c3.59-1.36,7.01-3.16,10.24-5.24c3.22-2.11,6.21-4.56,8.95-7.26c2.7-2.74,5.16-5.73,7.26-8.95c2.08-3.23,3.88-6.65,5.24-10.24
					c2.77-7.15,4-14.87,3.48-22.41C213.29,186.52,211.55,193.87,208.54,200.65z"/>
				<g>
					<g>
						<path class="st0" d="M149.83,213.03c-0.72-0.13-1.48-0.3-2.33-0.52c-11.75-3.06-21.16-12.21-24.54-23.88l-0.02-0.06h2.52
							l0.01,0.03c3.18,10.17,11.51,18.34,21.74,21.32l0.26,0.07v-29.9h-25.86l0-0.04c-0.01-0.35-0.02-0.71-0.02-1.06
							c0-0.42,0.01-0.84,0.03-1.26c0.07-1.78,0.27-3.54,0.59-5.24c0.22-1.13,0.49-2.26,0.81-3.34
							c3.43-11.57,12.81-20.65,24.48-23.68c0.86-0.22,1.62-0.39,2.33-0.52l0.06-0.01v24.28h-2.42v-21.23l-0.26,0.07
							c-10.29,2.99-18.4,10.89-21.67,21.12c-0.35,1.08-0.64,2.2-0.87,3.33c-0.34,1.63-0.55,3.3-0.63,4.97l-0.01,0.21h25.85v35.36
							L149.83,213.03z"/>
					</g>
					<g>
						<path class="st0" d="M162.57,188.56h2.42v21.42l0.26-0.07c10.37-3.03,18.49-11,21.73-21.31c0.35-1.15,0.64-2.27,0.85-3.33
							c0.33-1.65,0.52-3.32,0.58-4.97l0.01-0.21h-25.84v-35.16l0.05,0.01c0.79,0.14,1.55,0.31,2.33,0.51
							c11.66,3.04,21.04,12.11,24.46,23.68l0.02,0.06h-2.53l-0.01-0.03c-3.26-10.21-11.36-18.1-21.65-21.11l-0.26-0.07v29.69h25.84
							l0,0.04c0.02,0.42,0.03,0.84,0.03,1.26c0,0.36-0.01,0.71-0.02,1.06c-0.05,1.73-0.24,3.5-0.55,5.24
							c-0.22,1.16-0.49,2.29-0.8,3.34c-3.38,11.67-12.78,20.82-24.53,23.88c-0.79,0.2-1.55,0.37-2.33,0.51l-0.05,0.01V188.56z"/>
					</g>
				</g>
			</g>
		</g>
	</g>
</g>
</svg>
